<svg width="20" height="20" viewBox="0 0 20 20" fill="none" xmlns="http://www.w3.org/2000/svg">
<circle cx="10" cy="10" r="10" fill="#E0E0E0"/>
<path d="M3.1939 10.2828L3 10L3.1939 9.71724C3.27858 9.59374 3.43462 9.3882 3.65788 9.12773C4.02669 8.69745 4.45395 8.26774 4.93617 7.86589C6.33102 6.70351 7.89885 6 9.60626 6C11.3137 6 12.8815 6.70351 14.2764 7.86589C14.7586 8.26774 15.1858 8.69745 15.5546 9.12773C15.7779 9.3882 15.9339 9.59374 16.0186 9.71724L16.2125 10L16.0186 10.2828C15.9339 10.4063 15.7779 10.6118 15.5546 10.8723C15.1858 11.3025 14.7586 11.7323 14.2764 12.1341C12.8815 13.2965 11.3137 14 9.60626 14C7.89885 14 6.33102 13.2965 4.93617 12.1341C4.45395 11.7323 4.02669 11.3025 3.65788 10.8723C3.43462 10.6118 3.27858 10.4063 3.1939 10.2828ZM4.41714 10.2215C4.75146 10.6115 5.13982 11.0021 5.57635 11.3659C6.8065 12.391 8.16367 13 9.60626 13C11.0488 13 12.406 12.391 13.6362 11.3659C14.0727 11.0021 14.4611 10.6115 14.7954 10.2215C14.8647 10.1406 14.9262 10.0664 14.9797 10C14.9262 9.93358 14.8647 9.85937 14.7954 9.77852C14.4611 9.38848 14.0727 8.99789 13.6362 8.63411C12.406 7.60899 11.0488 7 9.60626 7C8.16367 7 6.8065 7.60899 5.57635 8.63411C5.13982 8.99789 4.75146 9.38848 4.41714 9.77852C4.34784 9.85937 4.28634 9.93358 4.23286 10C4.28634 10.0664 4.34784 10.1406 4.41714 10.2215ZM9.60626 12.1667C8.28078 12.1667 7.20626 11.122 7.20626 9.83333C7.20626 8.54467 8.28078 7.5 9.60626 7.5C10.9317 7.5 12.0063 8.54467 12.0063 9.83333C12.0063 11.122 10.9317 12.1667 9.60626 12.1667Z" fill="white"/>
</svg>
