<svg width="8" height="8" viewBox="0 0 8 8" fill="none" xmlns="http://www.w3.org/2000/svg">
<path d="M4.00008 3.76427L3.64653 3.41071L1.45127 1.21544C1.45127 1.21544 1.45127 1.21544 1.45127 1.21544C1.38618 1.15036 1.28066 1.15036 1.21557 1.21543C1.21556 1.21544 1.21556 1.21544 1.21556 1.21544M4.00008 3.76427L0.862008 1.8047C0.601661 1.54435 0.601661 1.12224 0.862008 0.861886L1.21556 1.21544M4.00008 3.76427L4.35364 3.41071M4.00008 3.76427L4.35364 3.41071M1.21556 1.21544C1.15048 1.28054 1.15048 1.38606 1.21556 1.45115L1.21556 1.21544ZM4.35364 3.41071L6.5489 1.21544L6.54891 1.21543M4.35364 3.41071L6.54891 1.21543M6.54891 1.21543C6.61398 1.15036 6.71951 1.15036 6.78458 1.21543L6.54891 1.21543ZM3.41083 3.6464L1.21557 1.45115L6.78459 1.21543C6.84966 1.28052 6.84967 1.38605 6.7846 1.45115C6.78459 1.45115 6.78459 1.45116 6.78458 1.45116L4.58933 3.64641L4.23577 3.99996L4.58933 4.35351L6.7846 6.54878C6.84967 6.61385 6.84967 6.7194 6.78459 6.78447C6.71952 6.84954 6.61397 6.84954 6.5489 6.78447L4.35363 4.58921L4.00008 4.23565L3.64653 4.58921L1.45128 6.78446C1.45128 6.78446 1.45127 6.78447 1.45127 6.78447C1.38617 6.84955 1.28064 6.84954 1.21555 6.78446C1.15048 6.71939 1.15048 6.61386 1.21555 6.54879L1.21556 6.54878L3.41083 4.35351L3.76439 3.99996L3.41083 3.6464Z" stroke="white"/>
</svg>
